<svg id="visual" viewBox="0 0 1500 800" width="1500" height="800" xmlns="http://www.w3.org/2000/svg" xmlns:xlink="http://www.w3.org/1999/xlink" version="1.1"><rect x="0" y="0" width="1500" height="800" fill="#4E54C8"></rect><path d="M0 311L188 344L375 441L563 446L750 493L938 424L1125 491L1313 344L1500 497L1500 801L1313 801L1125 801L938 801L750 801L563 801L375 801L188 801L0 801Z" fill="#1e147e"></path><path d="M0 406L188 407L375 434L563 386L750 416L938 356L1125 501L1313 467L1500 413L1500 801L1313 801L1125 801L938 801L750 801L563 801L375 801L188 801L0 801Z" fill="#241b86"></path><path d="M0 416L188 532L375 509L563 413L750 545L938 406L1125 512L1313 565L1500 538L1500 801L1313 801L1125 801L938 801L750 801L563 801L375 801L188 801L0 801Z" fill="#2a238e"></path><path d="M0 495L188 453L375 482L563 550L750 469L938 589L1125 551L1313 576L1500 538L1500 801L1313 801L1125 801L938 801L750 801L563 801L375 801L188 801L0 801Z" fill="#2f2a96"></path><path d="M0 606L188 595L375 536L563 549L750 507L938 529L1125 613L1313 586L1500 529L1500 801L1313 801L1125 801L938 801L750 801L563 801L375 801L188 801L0 801Z" fill="#34319e"></path><path d="M0 628L188 644L375 586L563 539L750 550L938 599L1125 603L1313 569L1500 581L1500 801L1313 801L1125 801L938 801L750 801L563 801L375 801L188 801L0 801Z" fill="#3a38a6"></path><path d="M0 630L188 663L375 632L563 678L750 594L938 594L1125 655L1313 651L1500 640L1500 801L1313 801L1125 801L938 801L750 801L563 801L375 801L188 801L0 801Z" fill="#3f3faf"></path><path d="M0 671L188 692L375 629L563 630L750 711L938 667L1125 687L1313 714L1500 629L1500 801L1313 801L1125 801L938 801L750 801L563 801L375 801L188 801L0 801Z" fill="#4446b7"></path><path d="M0 722L188 717L375 726L563 736L750 744L938 736L1125 735L1313 675L1500 736L1500 801L1313 801L1125 801L938 801L750 801L563 801L375 801L188 801L0 801Z" fill="#494dbf"></path><path d="M0 718L188 726L375 740L563 774L750 771L938 740L1125 725L1313 748L1500 750L1500 801L1313 801L1125 801L938 801L750 801L563 801L375 801L188 801L0 801Z" fill="#4e54c8"></path></svg>