<svg id="visual" viewBox="0 0 1400 800" width="1400" height="800" xmlns="http://www.w3.org/2000/svg" xmlns:xlink="http://www.w3.org/1999/xlink" version="1.1"><rect x="0" y="0" width="1400" height="800" fill="#4E54C8"></rect><path d="M0 405L45 252L90 380L135 455L181 229L226 256L271 699L316 489L361 280L406 752L452 508L497 477L542 218L587 749L632 549L677 727L723 618L768 586L813 481L858 687L903 212L948 267L994 234L1039 561L1084 275L1129 384L1174 271L1219 410L1265 211L1310 546L1355 445L1400 247" fill="none" stroke-linecap="square" stroke-linejoin="bevel" stroke="#1E147E" stroke-width="99"></path></svg>